<?xml version="1.0" standalone="no"?>
<!DOCTYPE svg PUBLIC "-//W3C//DTD SVG 20010904//EN"
 "http://www.w3.org/TR/2001/REC-SVG-20010904/DTD/svg10.dtd">
<svg version="1.0" xmlns="http://www.w3.org/2000/svg"
 width="1024.000000pt" height="1024.000000pt" viewBox="0 0 1024.000000 1024.000000"
 preserveAspectRatio="xMidYMid meet">

<g transform="translate(0.000000,1024.000000) scale(0.100000,-0.100000)"
fill="#000000" stroke="none">
<path d="M4844 8630 c-334 -23 -713 -107 -1049 -231 -138 -51 -384 -169 -408
-196 -14 -16 -26 -19 -61 -16 -27 3 -53 0 -70 -9 -25 -13 -32 -13 -68 5 -33
17 -46 18 -69 10 -24 -9 -31 -8 -46 9 -26 30 -92 58 -135 58 -86 0 -231 -80
-333 -184 -64 -66 -126 -171 -146 -249 -8 -33 -20 -53 -38 -65 -53 -33 -172
-134 -197 -168 -18 -23 -39 -37 -68 -44 -180 -45 -356 -210 -356 -335 l0 -41
-69 -17 c-94 -25 -169 -71 -208 -130 -40 -60 -53 -104 -53 -184 0 -95 -4 -89
157 -254 l55 -57 -40 -103 c-122 -315 -210 -699 -241 -1059 -29 -321 -17 -584
41 -897 l20 -112 41 -5 c23 -3 96 -8 162 -11 134 -7 465 -29 655 -45 217 -18
511 -40 531 -40 16 0 19 -8 19 -51 l0 -52 -57 7 c-32 3 -148 12 -258 21 -110
8 -260 20 -333 26 -129 12 -134 11 -154 -8 -22 -22 -29 -86 -11 -104 6 -6 111
-26 233 -45 314 -48 379 -59 607 -106 195 -40 201 -42 206 -67 3 -14 3 -28 1
-30 -5 -5 -326 26 -463 45 -57 8 -280 42 -495 75 -600 93 -582 91 -679 83
l-88 -6 3 -46 3 -46 50 -13 c55 -15 270 -63 550 -123 235 -51 518 -113 625
-139 372 -88 1341 -335 1375 -350 13 -7 -28 -10 -125 -10 -167 -1 -199 -11
-240 -74 -14 -23 -26 -33 -28 -25 -7 20 -54 68 -84 84 -22 12 -126 14 -596 14
l-570 0 -41 107 c-52 138 -52 138 -90 137 -17 0 -150 -1 -296 -2 l-265 -2 -26
-52 c-42 -84 -44 -85 -71 -26 -44 96 -8 88 -420 88 -342 0 -364 -1 -359 -17 3
-10 66 -232 141 -493 75 -261 157 -539 181 -617 24 -78 44 -162 44 -185 0 -24
-9 -118 -20 -211 -11 -92 -21 -187 -22 -211 -2 -58 18 -103 54 -122 25 -13
470 -15 3795 -15 l3767 1 27 26 c15 14 30 38 34 53 4 14 28 179 54 366 l47
340 90 5 89 5 8 60 c9 68 111 742 129 851 10 65 10 74 -8 105 -35 60 -39 61
-631 57 l-532 -3 25 26 c27 28 64 116 64 152 1 50 -1 50 255 33 l238 -17 23
22 c27 25 29 37 12 73 -13 30 -59 46 -133 46 -27 0 -105 5 -172 12 l-123 11 0
44 0 43 53 1 c28 1 92 2 142 3 l90 1 22 85 c40 151 94 411 115 560 18 121 22
196 22 455 1 341 -5 412 -59 700 -58 306 -151 602 -266 847 -35 73 -69 141
-78 151 -8 9 -12 19 -9 22 3 3 42 23 86 45 113 54 178 98 254 169 147 138 179
303 76 397 -30 26 -46 53 -64 106 -44 131 -156 282 -272 371 -315 240 -744
285 -1099 116 -52 -25 -88 -36 -100 -32 -10 4 -65 36 -123 72 -333 206 -751
376 -1135 462 -342 77 -722 110 -1021 89z m526 -189 c0 -11 -108 -60 -243
-111 -140 -52 -195 -81 -231 -119 -17 -17 -35 -31 -42 -31 -7 0 -21 16 -33 35
-11 19 -25 35 -31 35 -21 0 -9 17 23 35 26 14 514 160 550 164 4 1 7 -3 7 -8z
m-870 -190 l0 -89 -52 -7 c-73 -9 -110 -24 -106 -44 2 -12 17 -17 61 -19 49
-3 57 -6 57 -23 0 -47 -17 -59 -85 -59 -56 0 -64 -3 -70 -21 -10 -32 7 -41 69
-37 l57 3 -3 -40 -3 -40 -45 2 c-24 1 -67 -4 -95 -12 -45 -13 -50 -18 -52 -45
-2 -27 1 -30 26 -30 16 0 34 7 41 14 8 11 18 12 36 5 14 -5 36 -9 50 -9 19 0
24 -5 24 -24 0 -32 -14 -41 -90 -54 -36 -6 -126 -30 -200 -52 -74 -22 -144
-43 -155 -46 -17 -6 -17 -3 6 22 42 46 56 72 99 189 40 108 144 324 181 376
l18 26 -102 -37 c-56 -21 -157 -62 -224 -91 -96 -42 -120 -56 -111 -66 7 -9 7
-13 0 -13 -6 0 -13 4 -16 9 -3 4 -26 14 -51 21 -25 7 -45 16 -45 20 0 3 15 12
33 18 17 6 111 40 207 77 96 36 238 85 315 109 244 76 225 79 225 -33z m1200
65 c0 -9 -66 -42 -177 -88 -166 -69 -181 -77 -248 -140 -40 -38 -76 -68 -81
-68 -5 0 -17 14 -26 30 -10 17 -31 38 -48 48 -16 9 -30 20 -30 24 0 20 191 88
500 179 114 33 110 33 110 15z m540 -46 c0 -18 -39 -45 -92 -63 -119 -42 -185
-72 -218 -99 -19 -15 -42 -28 -52 -28 -19 0 -88 38 -88 48 0 20 87 57 203 88
73 20 152 42 177 49 57 16 70 17 70 5z m388 -131 c26 -43 55 -70 90 -85 l27
-11 -41 -21 c-32 -16 -94 -86 -94 -106 0 -2 -7 -21 -16 -42 l-16 -39 -28 60
c-30 65 -78 117 -125 135 l-30 12 30 12 c72 31 124 98 140 181 l7 40 17 -50
c9 -28 27 -67 39 -86z m-1982 -16 c4 -25 -1 -79 -10 -130 -9 -49 -23 -143 -31
-210 -12 -100 -24 -147 -67 -264 -53 -141 -53 -142 -93 -156 -21 -7 -42 -12
-46 -11 -4 2 17 64 47 138 37 95 55 156 60 205 4 39 12 76 18 84 6 8 16 66 22
130 9 106 13 120 42 160 24 32 32 55 32 85 0 51 16 32 26 -31z m-1655 -23 c9
-14 20 -36 23 -50 5 -18 1 -14 -14 12 -24 44 -40 56 -40 30 0 -13 -11 -22 -38
-30 -63 -19 -157 -87 -200 -144 -53 -69 -80 -135 -92 -221 -13 -91 -20 -117
-31 -117 -5 0 -9 3 -9 8 0 4 -5 36 -11 71 -13 80 0 139 47 232 44 84 111 149
205 199 87 47 132 50 160 10z m211 -50 c12 0 29 7 38 15 29 27 73 29 103 5 37
-29 34 -48 -8 -56 -20 -3 -44 -17 -55 -31 -10 -14 -25 -26 -33 -27 -8 -1 -29
-18 -46 -39 -18 -20 -38 -37 -44 -37 -6 0 -19 -8 -30 -17 -18 -16 -18 -14 3
24 25 45 23 65 -3 39 -17 -17 -27 -11 -27 16 0 10 11 24 25 30 32 14 31 25 -1
59 -17 18 -24 34 -20 44 6 15 9 15 42 -4 19 -12 45 -21 56 -21z m1798 8 c0
-15 -151 -71 -162 -60 -14 14 7 29 67 50 71 24 95 27 95 10z m-1399 -40 c1 -7
1 -18 0 -25 -1 -9 12 -10 48 -6 46 5 52 3 80 -25 39 -39 43 -82 7 -82 -13 0
-26 7 -30 15 -3 8 -11 15 -17 15 -8 0 -9 -4 0 -13 8 -10 4 -20 -19 -42 -17
-16 -35 -46 -41 -67 l-10 -38 -54 0 c-58 0 -56 1 -70 -67 -7 -33 -19 -42 -28
-23 -3 6 -4 5 -3 -2 2 -7 -7 -28 -21 -45 -13 -18 -32 -59 -42 -90 l-19 -58
-18 42 c-16 36 -25 44 -54 49 -19 3 -63 24 -96 45 -54 35 -62 44 -68 79 -8 53
0 68 52 93 33 16 56 39 89 87 36 54 52 68 90 81 28 10 52 27 62 43 14 23 21
26 52 21 26 -5 39 -2 49 9 15 19 60 21 61 4z m4304 -38 c157 -40 302 -125 412
-243 50 -54 133 -172 133 -190 0 -2 -21 0 -47 6 -78 16 -462 12 -594 -6 -319
-44 -737 -166 -936 -273 -44 -24 -84 -44 -88 -44 -13 0 4 103 30 179 53 157
141 283 270 387 129 104 297 178 460 204 90 14 268 4 360 -20z m-1785 7 c0
-39 -352 -502 -424 -558 -31 -24 -86 -51 -97 -47 -5 2 34 53 87 113 53 61 150
180 216 265 65 85 135 174 154 198 34 41 64 55 64 29z m-2076 -26 c11 -18 -6
-40 -67 -87 -34 -26 -78 -63 -98 -81 l-36 -34 -31 36 c-18 20 -32 39 -32 44 0
12 127 95 175 114 45 18 81 21 89 8z m1238 -16 c-6 -34 -22 -43 -174 -94 -81
-28 -168 -60 -193 -72 l-46 -22 -30 29 -29 28 27 15 c46 24 406 141 428 138
14 -1 19 -8 17 -22z m356 -77 c-87 -100 -233 -223 -361 -305 -119 -76 -141
-104 -90 -111 56 -8 294 160 497 350 121 113 128 109 21 -12 -116 -131 -288
-275 -442 -370 -58 -35 -59 -37 -40 -64 13 -17 16 -17 63 7 68 35 179 115 291
209 52 44 97 77 100 75 11 -12 -215 -236 -322 -320 -88 -68 -116 -83 -190 -96
-122 -23 -214 -11 -275 34 -19 14 -41 25 -49 25 -51 0 -1271 -411 -1271 -428
0 -8 -5 -10 -12 -5 -7 4 -22 7 -33 5 -59 -6 132 67 510 195 288 97 274 91 289
127 12 29 22 34 197 89 271 86 288 93 360 151 68 54 79 60 194 96 138 43 267
124 472 295 76 63 140 115 142 115 2 0 -21 -28 -51 -62z m665 -82 c23 -7 22
-26 -2 -26 -10 0 -35 -7 -55 -15 -20 -9 -47 -13 -61 -9 -25 6 -25 6 -7 33 11
14 22 34 25 44 6 17 9 17 44 -2 21 -11 46 -22 56 -25z m-2478 -104 c50 -70 50
-70 33 -69 -63 2 -79 -4 -89 -32 -6 -15 -21 -33 -35 -40 -35 -16 -36 -15 -19
19 17 32 12 69 -8 71 -7 1 -25 3 -41 5 -16 2 -37 -1 -45 -6 -12 -7 -8 -9 17
-10 31 0 42 -12 22 -25 -14 -9 -12 -31 5 -48 22 -22 8 -27 -76 -27 -83 0 -115
-15 -106 -51 5 -19 -21 -48 -61 -69 -37 -18 -38 -4 -3 29 21 20 31 38 31 59 0
57 15 79 59 86 l41 6 0 55 0 55 50 0 c59 0 82 19 101 87 l13 46 33 -39 c19
-21 54 -67 78 -102z m-1331 -128 c32 -53 55 -98 52 -101 -11 -11 -96 29 -96
44 0 9 -7 40 -16 69 -15 44 -15 84 -1 84 3 0 30 -43 61 -96z m1882 44 c-55
-130 -56 -131 -126 -145 -309 -59 -512 -94 -517 -89 -3 3 -3 16 1 29 6 26 66
55 271 129 90 33 347 106 378 108 4 0 1 -15 -7 -32z m2384 17 c0 -3 -14 -30
-31 -60 -31 -55 -48 -66 -99 -63 -14 1 -350 -91 -747 -205 -398 -114 -735
-207 -750 -206 -17 0 1 9 47 22 96 29 158 63 260 143 62 50 82 61 86 49 4 -8
14 -15 23 -15 15 0 839 231 1086 305 123 37 125 37 125 30z m-3635 -70 c48
-24 60 -34 59 -53 -1 -12 1 -20 4 -18 7 7 31 -25 32 -42 0 -9 -8 -7 -26 7 -15
12 -39 21 -55 21 -15 0 -31 4 -34 10 -3 5 -38 19 -76 31 -63 19 -77 20 -132 9
-108 -20 -213 -77 -247 -132 -24 -40 -33 -20 -15 33 19 52 45 82 103 116 72
43 119 53 227 50 89 -2 108 -6 160 -32z m-765 -20 c0 -18 -4 -23 -15 -19 -16
6 -20 26 -8 37 13 14 23 6 23 -18z m876 -57 l29 -33 -30 25 c-16 14 -34 28
-39 32 -6 5 -6 8 0 8 6 0 23 -15 40 -32z m369 22 c-3 -5 -11 -10 -16 -10 -6 0
-7 5 -4 10 3 6 11 10 16 10 6 0 7 -4 4 -10z m-1291 -65 c99 -26 184 -79 307
-189 62 -57 125 -115 138 -129 l23 -25 -32 -17 c-31 -16 -32 -16 -73 17 -91
73 -182 118 -236 118 -27 0 -29 -3 -35 -51 -4 -29 -3 -55 1 -59 10 -9 103 -18
97 -9 -7 13 18 79 30 79 32 0 38 -26 25 -99 -7 -38 -17 -67 -21 -65 -4 3 -8
-6 -8 -20 0 -14 -10 -35 -22 -46 l-23 -21 -3 22 c-2 12 1 42 8 67 6 25 7 48 3
52 -14 14 -76 23 -69 11 5 -7 -2 -11 -17 -11 -20 0 -25 -6 -31 -37 -3 -21 -6
-53 -6 -70 0 -18 -4 -33 -10 -33 -5 0 -10 -6 -10 -13 0 -25 -59 -93 -97 -113
-21 -10 -55 -29 -75 -41 l-37 -23 -3 48 c-3 45 -4 46 -16 22 -11 -23 -12 -22
-7 15 3 22 7 63 10 90 5 61 23 194 44 335 12 79 20 105 31 105 21 0 25 44 6
51 -9 3 -16 17 -16 30 0 20 5 24 33 24 18 0 59 -7 91 -15z m6161 -29 c54 -15
128 -67 114 -80 -2 -2 -38 7 -79 21 -158 53 -486 54 -785 3 -377 -65 -821
-225 -952 -344 -57 -51 -77 -47 -43 9 86 139 652 342 1113 400 158 20 549 14
632 -9z m-6405 -29 c0 -13 -16 -40 -35 -61 -33 -36 -39 -49 -36 -69 1 -5 -3
-6 -8 -3 -18 11 -20 -40 -3 -94 9 -30 20 -56 24 -58 9 -4 11 -32 3 -32 -2 0
-23 7 -44 16 -40 16 -40 16 -35 59 5 29 2 49 -9 66 -15 23 -14 27 15 77 17 30
51 69 77 88 25 18 47 34 49 34 1 0 2 -10 2 -23z m1567 -64 l-2 -68 35 3 c32 3
524 96 577 109 22 5 22 4 -5 -49 -32 -64 -32 -64 -102 -83 -116 -33 -736 -256
-789 -284 -24 -13 -24 -25 0 133 5 33 7 62 5 64 -3 2 -16 -4 -30 -13 -26 -17
-50 -77 -62 -153 -9 -57 -27 -76 -104 -107 -36 -15 -71 -29 -79 -32 -12 -5
-13 8 -7 81 7 82 6 87 -11 78 -35 -19 -53 -49 -64 -108 -5 -32 -12 -67 -15
-77 -3 -10 -47 -37 -105 -65 l-99 -48 0 64 0 63 -30 -18 c-30 -17 -45 -51 -52
-118 -3 -26 -12 -34 -88 -72 -47 -23 -86 -43 -87 -43 -2 0 -3 25 -3 54 l0 55
-30 -11 c-37 -12 -50 -35 -50 -85 0 -21 -4 -43 -8 -49 -9 -14 -200 -114 -218
-114 -10 0 -14 13 -14 45 0 25 -3 45 -6 45 -5 0 -125 -68 -133 -76 -2 -2 -7
-29 -11 -61 -7 -52 -8 -46 -9 49 l-1 106 48 35 c137 99 585 350 967 542 284
143 558 273 577 275 3 0 5 -30 5 -67z m4738 24 c62 -17 105 -39 129 -66 143
-158 -790 -481 -1324 -457 -207 9 -334 42 -361 93 -11 21 -10 29 5 58 24 44
84 86 210 146 220 105 547 193 891 239 97 12 388 4 450 -13z m-3551 -156 c3
-5 -9 -11 -27 -14 -30 -5 -131 -37 -622 -197 -104 -34 -219 -71 -255 -81 -36
-11 -74 -23 -85 -26 -11 -3 -17 -3 -13 1 8 10 957 325 980 325 9 1 19 -3 22
-8z m1543 -37 c-13 -42 -19 -45 -157 -79 -155 -39 -893 -236 -902 -241 -4 -3
-8 -12 -8 -20 0 -21 -98 -20 -107 2 -11 30 31 53 177 93 203 55 908 239 947
247 18 4 38 13 44 20 17 21 18 17 6 -22z m271 8 c2 -11 -4 -35 -13 -53 -10
-18 -20 -53 -24 -78 l-7 -46 -44 2 c-53 3 -70 18 -77 71 -8 58 13 85 84 110
67 24 77 23 81 -6z m-4735 -138 c80 -20 108 -35 105 -53 -4 -19 -2 -19 -157
13 -69 14 -127 24 -129 22 -2 -3 67 -73 152 -157 86 -83 156 -159 156 -169 0
-9 -11 -27 -26 -40 -21 -21 -27 -22 -34 -10 -8 12 -10 11 -10 -6 0 -28 -10
-36 -28 -21 -13 10 -15 9 -9 -5 10 -27 -1 -21 -16 8 -7 14 -42 55 -78 91 -35
37 -57 62 -49 58 8 -5 3 7 -11 26 -15 18 -33 34 -40 34 -8 0 -14 5 -14 10 0
19 -17 36 -30 31 -19 -7 -44 25 -47 62 -1 19 -8 32 -15 32 -11 0 -10 6 2 30
35 68 126 82 278 44z m4447 3 c0 -25 30 -15 -405 -128 -217 -56 -647 -160
-651 -157 -1 2 3 10 10 19 13 18 137 55 576 169 151 40 313 83 360 95 107 30
110 30 110 2z m112 -167 l32 -19 -36 -15 c-20 -9 -128 -38 -240 -66 -560 -139
-807 -203 -953 -248 -88 -28 -248 -70 -355 -96 -107 -25 -348 -82 -535 -126
-507 -121 -1186 -270 -1273 -280 -42 -5 -97 -12 -122 -16 -64 -10 -44 4 37 26
37 10 142 39 233 65 509 141 1755 458 2355 600 110 26 333 80 495 120 162 41
303 74 312 74 10 1 32 -8 50 -19z m-2654 -132 c-3 -31 -5 -32 -103 -59 -55
-15 -215 -59 -355 -98 -299 -83 -562 -143 -557 -127 2 6 25 19 52 29 102 38
569 181 810 248 60 16 111 32 114 35 2 2 13 4 23 4 16 0 19 -6 16 -32z m2848
-35 c-7 -8 -185 -57 -376 -105 -103 -26 -198 -43 -252 -46 -97 -5 -116 7 -43
28 24 7 42 16 39 21 -3 5 9 9 27 9 33 0 504 111 569 134 33 11 35 11 38 -12 2
-13 1 -26 -2 -29z m1271 51 c-3 -3 -12 -4 -19 -1 -8 3 -5 6 6 6 11 1 17 -2 13
-5z m-52 -14 c-11 -5 -29 -8 -40 -8 -16 0 -15 2 5 8 34 11 60 11 35 0z m336
-183 c21 -70 42 -157 45 -193 6 -61 6 -66 -12 -62 -14 2 -35 39 -74 130 -30
69 -61 133 -69 142 -20 24 -69 20 -241 -19 -398 -91 -568 -126 -604 -123 -73
6 -49 24 61 47 514 106 804 178 819 203 3 5 13 8 21 6 11 -2 28 -45 54 -131z
m-916 82 c-44 -17 -174 -53 -290 -81 -115 -27 -218 -54 -227 -59 -19 -10 -78
13 -78 30 0 13 45 28 150 51 156 34 264 61 285 70 39 17 51 18 145 19 l95 0
-80 -30z m-3415 -88 c-6 -13 -31 -26 -63 -35 -149 -43 -706 -194 -867 -236
-239 -62 -299 -79 -333 -97 -19 -10 -32 -11 -40 -4 -7 5 -33 11 -57 13 l-45 3
67 32 c38 17 139 50 227 72 87 23 250 66 362 96 112 31 272 73 354 95 83 22
206 55 275 74 131 35 145 33 120 -13z m2445 -121 c160 -22 414 -58 565 -80
151 -22 359 -52 462 -67 l188 -26 31 -66 c33 -70 161 -368 263 -616 205 -492
210 -503 312 -621 52 -60 92 -115 89 -122 -3 -8 -5 -155 -5 -328 l0 -314 -45
0 -45 0 0 308 0 308 -44 37 c-24 20 -60 63 -80 96 -20 32 -108 234 -196 449
-164 402 -312 744 -334 774 -10 13 -75 26 -302 58 -159 22 -354 50 -434 61
-486 69 -922 130 -966 135 -41 5 -87 -2 -225 -36 -96 -23 -203 -50 -239 -60
-36 -10 -123 -32 -195 -50 -71 -17 -132 -33 -135 -36 -3 -3 -6 -312 -8 -687
l-3 -682 -487 -3 c-417 -2 -1456 -19 -1517 -25 -19 -2 -20 4 -20 103 l0 105
38 2 c64 2 102 53 81 107 -5 12 -21 16 -65 16 l-59 0 2 347 3 346 155 34
c1290 282 1612 358 2451 576 l167 44 153 -24 c85 -13 285 -41 444 -63z m1649
-125 c9 -14 39 -38 68 -54 l51 -29 -39 -16 c-21 -9 -53 -33 -70 -52 l-31 -37
-23 23 c-34 34 -91 70 -111 70 -31 0 -22 15 24 37 23 11 56 34 72 50 38 38 39
38 59 8z m-2216 -72 c12 -32 51 -161 87 -288 85 -296 148 -506 187 -625 27
-83 38 -102 88 -155 66 -69 267 -302 292 -338 38 -54 42 -55 578 -59 272 -1
618 1 768 5 l272 9 0 -289 0 -289 -151 -3 c-83 -1 -157 -5 -165 -8 -12 -4 -14
35 -14 240 0 210 -2 248 -16 261 -13 14 -60 16 -337 18 -177 1 -355 2 -395 3
-106 0 -107 -2 -117 -210 -4 -91 -4 -208 0 -260 l7 -94 -33 -5 c-19 -3 -83 -8
-144 -11 -60 -3 -147 -8 -192 -12 l-83 -6 0 360 0 360 -62 -17 -63 -17 4 -348
4 -348 -116 7 c-169 11 -165 9 -211 100 -51 104 -131 185 -209 214 -92 35
-150 27 -236 -30 -24 -16 -45 -27 -47 -25 -8 8 88 89 124 104 76 32 183 15
260 -43 40 -31 41 -25 1 20 -34 40 -119 76 -178 76 -173 0 -331 -211 -366
-489 l-7 -54 -76 7 c-41 3 -77 8 -79 10 -3 2 -4 485 -4 1072 l-1 1069 299 72
c164 39 301 72 304 72 4 1 16 -25 27 -56z m938 -68 c23 -7 274 -809 274 -872
0 -28 -25 -31 -40 -4 -23 44 -155 420 -225 644 -20 64 -42 120 -49 125 -11 7
-99 18 -481 61 -303 34 -270 25 -283 74 -5 23 -13 51 -17 63 -6 20 4 19 402
-33 224 -29 413 -55 419 -58z m-4910 -28 c7 -61 13 -129 13 -149 l1 -38 -75 0
c-41 0 -75 3 -75 6 0 3 23 67 51 142 27 75 52 143 55 151 9 29 18 -3 30 -112z
m541 63 c18 -16 40 -30 48 -30 8 0 15 -4 15 -9 0 -9 -89 -81 -100 -81 -3 0
-19 14 -35 30 -16 17 -34 30 -41 30 -28 0 -22 20 13 41 21 13 42 29 46 36 11
18 15 17 54 -17z m6027 -93 c-18 -10 -18 -37 0 -37 8 0 22 -29 35 -75 22 -74
81 -343 81 -370 0 -13 -70 -69 -77 -61 -2 1 -10 43 -18 92 -21 118 -62 273
-81 302 -8 12 -27 28 -42 33 l-27 11 39 20 c45 23 66 41 66 57 0 6 -6 11 -12
11 -7 0 -19 4 -27 9 -11 7 -9 15 10 40 l23 31 22 -27 c18 -23 20 -29 8 -36z
m-1215 1 c283 -35 277 -33 296 -95 6 -21 3 -23 -37 -23 -24 0 -122 9 -218 19
-96 11 -209 22 -251 26 l-77 6 -20 56 -20 55 31 -6 c18 -3 151 -20 296 -38z
m-690 -325 c244 -246 488 -509 479 -518 -10 -10 -646 607 -740 718 l-40 47 27
0 c22 0 73 -47 274 -247z m-419 137 c35 -47 88 -114 119 -150 93 -109 426
-457 457 -477 19 -12 -115 -11 -353 3 l-93 6 -29 96 c-54 177 -119 396 -145
492 -15 52 -29 104 -32 115 -8 26 -1 19 76 -85z m-3107 73 c-7 -2 -19 -2 -25
0 -7 3 -2 5 12 5 14 0 19 -2 13 -5z m5082 -33 c8 -16 27 -36 41 -43 l26 -14
-24 -19 c-13 -10 -33 -32 -43 -48 l-19 -29 -15 24 c-9 13 -28 36 -44 51 l-28
27 30 17 c16 10 35 28 42 41 7 13 14 23 15 23 2 0 10 -13 19 -30z m-885 -14
c74 -8 185 -20 247 -27 l112 -12 40 -91 c22 -50 69 -163 104 -251 36 -88 79
-193 96 -234 17 -41 31 -77 31 -80 0 -3 -96 -1 -212 6 -117 6 -259 12 -315 12
-93 1 -103 3 -113 22 -6 11 -41 120 -77 242 -36 122 -76 256 -88 297 -13 41
-26 90 -30 109 l-7 33 38 -6 c22 -4 100 -13 174 -20z m-5133 -192 c-3 -3 -12
-4 -19 -1 -8 3 -5 6 6 6 11 1 17 -2 13 -5z m4676 -355 c62 -59 109 -110 106
-113 -4 -4 -110 95 -235 220 -146 144 -184 185 -106 113 68 -62 174 -161 235
-220z m1517 221 c25 -25 25 -24 -5 -55 -30 -29 -35 -31 -35 -11 0 8 -9 18 -20
21 -23 7 -27 35 -5 35 9 0 18 7 21 15 8 20 20 19 44 -5z m56 -215 c15 -22 14
-26 -3 -49 -22 -31 -31 -32 -60 -4 l-23 22 27 28 c33 34 38 35 59 3z m244
-147 c0 -27 -29 -34 -51 -12 -18 18 -18 21 -3 42 15 22 17 22 35 6 10 -9 19
-26 19 -36z m-1695 -88 c220 -6 535 -15 700 -21 l300 -11 23 -27 c26 -30 182
-258 182 -266 0 -3 -333 -5 -739 -5 l-739 0 -111 101 c-116 106 -224 226 -215
241 3 4 49 6 102 3 53 -3 277 -10 497 -15z m1713 -12 c23 -13 41 -27 39 -32
-6 -19 -122 -76 -143 -71 -11 2 -42 17 -68 31 l-48 27 68 33 c84 39 97 40 152
12z m-3518 -694 l0 -317 -72 7 c-40 3 -138 10 -218 16 -80 5 -277 19 -438 30
-503 34 -591 21 -156 -24 137 -14 382 -40 544 -57 162 -16 305 -32 318 -35 18
-3 22 -11 22 -39 0 -19 -4 -35 -8 -35 -5 0 -256 25 -558 56 -302 30 -575 58
-607 61 l-57 6 -31 58 c-63 118 -175 189 -299 189 -32 0 -70 -4 -84 -10 -48
-18 -26 1 30 27 48 22 66 25 128 21 78 -5 153 -37 195 -82 24 -25 51 -35 51
-18 0 5 -27 50 -61 101 -86 131 -169 180 -285 168 -134 -14 -219 -111 -267
-306 -11 -45 -27 -85 -34 -88 -7 -3 -43 -2 -78 2 -63 6 -65 8 -65 35 0 25 4
28 50 34 40 5 50 10 50 26 0 15 -8 19 -47 22 l-48 3 -3 217 -2 216 62 6 c83 8
1003 22 1541 24 l427 2 0 -316z m-2604 121 c-9 -126 -17 -185 -26 -185 -5 0
-8 12 -7 28 2 66 -4 158 -12 171 -6 9 -56 17 -164 27 -239 20 -239 28 -2 40
116 6 212 11 214 12 2 1 1 -41 -3 -93z m5247 41 c3 -7 2 -17 -3 -22 -5 -5
-158 -7 -342 -4 -307 5 -333 6 -336 23 -3 16 18 17 336 17 280 0 341 -2 345
-14z m-3 -135 c0 -18 -16 -19 -312 -26 -172 -4 -324 -6 -338 -4 -14 2 -26 12
-28 21 -4 19 21 20 491 26 177 2 187 1 187 -17z m0 -125 l0 -23 -282 -7 c-156
-4 -307 -9 -335 -12 -51 -6 -53 -5 -53 18 l0 25 323 10 c177 5 328 10 335 11
6 1 12 -8 12 -22z m-4322 -137 c-27 -55 -36 -188 -18 -254 17 -59 65 -135 86
-135 16 0 15 2 -1 20 -10 11 -14 20 -9 20 5 0 15 -9 22 -20 16 -26 63 -26 86
-1 49 55 59 162 21 236 -13 27 -23 51 -20 53 10 10 55 -102 61 -150 7 -63 -15
-165 -47 -209 -19 -27 -19 -29 -2 -29 10 0 28 7 41 15 18 13 28 14 62 4 54
-16 104 -1 158 49 50 47 57 28 14 -37 -36 -54 -85 -86 -161 -107 -53 -15 -70
-16 -128 -5 -84 15 -130 39 -177 91 -64 71 -80 119 -81 240 0 133 14 183 68
233 22 20 42 36 44 34 1 -2 -7 -23 -19 -48z m4322 12 c0 -15 -11 -19 -61 -25
-34 -3 -105 -6 -158 -7 -53 0 -88 -4 -77 -8 10 -4 -40 -6 -110 -5 -98 1 -111
0 -54 -5 73 -6 70 -6 -65 -13 -76 -4 -140 -6 -141 -5 -1 1 -5 14 -9 29 l-7 26
74 6 c70 6 416 21 546 24 54 2 62 0 62 -17z m-1892 -20 c9 -6 1 -10 -25 -14
-127 -21 -208 -222 -158 -393 21 -73 94 -153 141 -155 80 -3 124 24 161 100
29 58 36 135 20 216 -7 38 -6 39 7 15 27 -49 38 -134 26 -202 -13 -72 -22 -92
-58 -130 -35 -38 -12 -35 29 3 l32 30 50 -27 c62 -33 124 -30 182 9 22 15 43
27 48 27 15 0 -46 -101 -78 -127 -87 -74 -248 -114 -373 -93 -100 16 -166 58
-219 138 -59 87 -78 155 -78 272 1 114 22 191 68 252 50 66 90 88 156 88 31 0
62 -4 69 -9z m-2288 -164 c24 -39 26 -104 4 -135 -21 -30 -58 -28 -83 4 -46
58 -12 201 40 173 11 -6 29 -25 39 -42z m4670 -31 l0 -64 -72 -6 c-124 -10
-1527 -76 -1616 -76 -51 0 -56 2 -109 53 l-55 53 313 18 c173 10 573 33 889
51 316 18 592 33 613 34 l37 1 0 -64z m-2364 -11 c33 -22 54 -77 54 -138 0
-67 -34 -117 -78 -117 -94 1 -137 172 -65 252 20 22 61 23 89 3z m-1362 -80
c533 -69 507 -64 513 -84 4 -9 15 -29 26 -45 l20 -29 -159 6 c-87 4 -331 12
-541 19 l-382 12 16 35 c9 20 21 60 27 89 8 41 14 52 30 52 10 0 213 -25 450
-55z m2025 -159 c55 -9 128 -11 295 -5 121 5 267 9 322 11 l102 3 20 -64 21
-64 -445 6 c-245 3 -447 7 -449 9 -2 2 4 29 12 61 18 64 13 62 122 43z m1611
-53 c0 -2 -9 -21 -19 -42 -24 -46 -78 -96 -128 -116 -43 -18 -169 -31 -208
-21 l-27 7 29 22 c42 33 62 58 85 106 l20 44 82 -5 c44 -3 95 -2 111 1 34 8
55 9 55 4z m-3465 -283 c127 -22 289 -49 360 -60 186 -30 191 -32 125 -42 -30
-5 -72 -20 -92 -33 -46 -31 -45 -31 -99 -1 -132 74 -347 77 -505 6 -37 -16
-45 -16 -55 -4 -15 18 -98 42 -172 50 -68 7 -74 25 -17 58 29 18 182 64 215
65 6 1 114 -17 240 -39z m-3112 -37 c9 -21 39 -97 68 -170 28 -73 57 -140 64
-150 12 -16 24 4 106 170 l93 187 218 0 c124 0 218 -4 218 -9 0 -5 -66 -112
-147 -238 -375 -584 -342 -527 -354 -612 -24 -185 -50 -368 -54 -388 -5 -23
-7 -23 -181 -23 l-175 0 5 33 c6 35 39 271 56 404 l11 82 -102 213 c-56 117
-137 284 -180 370 -44 87 -79 160 -79 163 0 3 94 5 208 5 l209 0 16 -37z
m7580 12 c-7 -77 -37 -262 -44 -269 -4 -5 -64 -8 -133 -7 -167 2 -173 1 -180
-57 -34 -265 -118 -890 -121 -899 -3 -10 -47 -13 -173 -13 l-168 0 13 108 c21
174 103 794 109 830 l5 32 -138 0 c-76 0 -143 -4 -149 -8 -6 -4 -15 -31 -19
-59 l-7 -53 -173 0 -173 0 -6 -27 c-3 -16 -8 -56 -11 -90 l-7 -63 126 0 c111
0 126 -2 126 -17 0 -9 -5 -56 -11 -105 l-12 -88 -127 0 -128 0 -6 -67 c-4 -38
-9 -81 -12 -97 l-6 -28 201 7 201 8 0 -33 c0 -19 -4 -61 -10 -94 -5 -34 -12
-82 -15 -108 l-6 -48 -340 0 -340 0 6 33 c2 17 12 95 20 172 13 113 75 601
100 793 l6 42 298 0 299 0 11 83 c18 130 20 135 44 139 12 2 231 3 487 3 456
0 465 -1 463 -20z m-1115 -37 c7 -7 12 -16 12 -20 0 -4 -57 -8 -127 -7 l-128
0 55 19 c64 21 170 26 188 8z m-3162 -174 c63 -17 144 -86 172 -147 11 -23 23
-66 27 -94 l7 -53 -125 0 -125 0 -12 34 c-18 56 -53 81 -115 81 -58 0 -89 -19
-107 -64 -11 -29 4 -71 31 -88 10 -6 66 -25 125 -42 128 -37 174 -59 231 -112
61 -56 79 -108 73 -211 -4 -65 -11 -95 -32 -136 -77 -151 -254 -234 -449 -211
-181 22 -294 121 -328 286 -7 34 -11 64 -8 67 2 2 63 7 135 11 l132 7 7 -32
c10 -46 60 -98 106 -110 84 -23 169 29 169 102 0 59 -35 88 -155 128 -146 48
-179 64 -230 111 -138 127 -73 367 122 456 88 40 239 48 349 17z m-2290 -11
c-2 -10 -7 -45 -11 -78 -3 -33 -22 -179 -41 -325 -18 -146 -34 -279 -34 -297
0 -49 37 -86 86 -86 51 0 100 26 118 61 8 15 33 171 55 347 23 176 44 337 47
358 l6 37 143 0 144 0 -5 -32 c-4 -31 -48 -377 -74 -588 -16 -127 -42 -205
-88 -265 -100 -131 -256 -189 -443 -163 -125 17 -222 86 -260 186 -18 48 -20
70 -16 142 5 69 70 555 92 688 l6 32 140 0 c129 0 140 -1 135 -17z m969 5 c5
-14 85 -554 85 -571 0 -29 26 30 130 296 l114 287 188 0 c144 0 188 -3 188
-12 0 -7 -5 -44 -11 -83 -20 -136 -119 -911 -119 -932 0 -10 -30 -13 -115 -13
-106 0 -115 1 -115 19 0 25 79 620 87 649 3 12 1 22 -3 22 -5 0 -33 -60 -62
-133 -29 -72 -92 -226 -140 -342 l-87 -210 -89 -3 c-49 -2 -93 1 -97 5 -4 4
-34 161 -66 348 -48 284 -59 333 -65 300 -5 -22 -24 -168 -43 -325 -20 -157
-38 -295 -41 -307 -4 -22 -8 -23 -114 -23 -98 0 -110 2 -110 18 0 9 27 217 59
462 33 245 63 471 67 503 l6 57 174 0 c131 0 176 -3 179 -12z m2359 -50 c-3
-35 -9 -79 -13 -98 l-7 -35 -117 -3 -116 -3 -6 -32 c-6 -36 -95 -783 -95 -798
0 -5 -60 -9 -140 -9 -114 0 -140 3 -140 14 0 28 84 726 95 794 l6 32 -127 0
-126 0 7 78 c3 42 9 87 12 100 l5 22 385 0 384 0 -7 -62z m614 47 c113 -34
187 -129 199 -256 13 -142 -48 -275 -161 -354 l-28 -20 17 -40 c9 -22 32 -111
50 -197 l33 -158 -143 0 -142 0 -13 98 c-17 129 -22 140 -62 144 -27 2 -34 8
-42 36 -6 20 -16 33 -27 34 -11 0 -25 1 -31 2 -9 1 -16 -35 -24 -114 -6 -63
-15 -134 -19 -157 l-7 -43 -135 0 -136 0 7 73 c7 71 85 712 107 880 l12 87
247 0 c192 0 258 -3 298 -15z m938 -50 c-4 -36 -9 -79 -13 -95 l-5 -30 -193 0
-193 0 -6 -37 c-3 -21 -8 -62 -12 -90 l-6 -53 127 0 127 0 -6 -27 c-3 -16 -8
-63 -12 -105 l-6 -78 -128 0 -128 0 -6 -42 c-3 -24 -8 -66 -12 -95 l-6 -52
201 6 201 6 0 -29 c0 -16 -7 -76 -15 -134 -8 -58 -15 -108 -15 -112 0 -5 -153
-8 -340 -8 l-341 0 6 33 c11 65 99 771 110 887 3 36 8 77 11 93 l6 27 330 0
331 0 -7 -65z"/>
<path d="M3498 7933 c6 -2 18 -2 25 0 6 3 1 5 -13 5 -14 0 -19 -2 -12 -5z"/>
<path d="M3297 7783 c-10 -9 -9 -23 1 -23 5 0 9 7 9 15 0 17 -1 18 -10 8z"/>
<path d="M3271 7594 c0 -11 3 -14 6 -6 3 7 2 16 -1 19 -3 4 -6 -2 -5 -13z"/>
<path d="M3098 7533 c7 -3 16 -2 19 1 4 3 -2 6 -13 5 -11 0 -14 -3 -6 -6z"/>
<path d="M2277 7353 c-4 -3 -7 -26 -7 -50 l0 -44 53 3 c45 3 52 6 55 26 4 29
47 30 62 2 17 -32 120 -51 120 -22 0 10 -140 63 -177 67 -11 2 -32 6 -45 10
-12 4 -30 9 -39 11 -8 2 -18 1 -22 -3z"/>
<path d="M2256 7203 c-3 -10 -6 -34 -8 -53 l-3 -35 48 -3 c44 -3 47 -2 47 22
0 13 4 36 9 49 9 22 7 25 -21 31 -49 10 -66 7 -72 -11z"/>
<path d="M2190 7156 c0 -8 -5 -16 -12 -18 -7 -3 -6 -7 5 -11 13 -5 17 -1 17
18 0 14 -2 25 -5 25 -3 0 -5 -6 -5 -14z"/>
<path d="M2230 7030 c-18 -64 -15 -70 34 -70 l43 0 10 49 10 49 -44 4 c-42 3
-44 2 -53 -32z"/>
<path d="M2160 7035 c0 -14 2 -25 4 -25 2 0 6 11 8 25 3 14 1 25 -3 25 -5 0
-9 -11 -9 -25z"/>
<path d="M2206 6879 c-3 -17 -6 -44 -6 -60 0 -26 4 -29 31 -29 31 0 47 22 64
93 7 26 6 27 -38 27 -42 0 -45 -2 -51 -31z"/>
<path d="M8015 7304 c-16 -3 -84 -11 -150 -20 -304 -38 -606 -122 -832 -231
-56 -27 -104 -58 -123 -80 -28 -32 -30 -37 -17 -56 22 -36 76 -55 187 -68 343
-39 1023 112 1284 286 114 76 107 120 -24 151 -58 14 -273 26 -325 18z m-163
-121 c-23 -4 -23 -5 -5 -19 16 -14 13 -15 -36 -9 -75 9 -86 19 -26 26 62 7
101 8 67 2z m-228 -72 c22 -10 36 -20 30 -23 -13 -8 -104 20 -104 32 0 15 30
11 74 -9z m351 -23 c-9 -47 -75 -103 -75 -64 0 45 14 76 39 85 40 15 43 13 36
-21z m-557 -16 c23 -15 -31 -33 -88 -30 l-55 3 30 17 c32 18 91 23 113 10z
m168 -38 c57 -19 117 -61 111 -77 -8 -25 -62 -16 -112 17 -27 18 -67 38 -88
45 -20 7 -35 17 -32 22 9 14 66 11 121 -7z m-111 -69 c0 -19 -117 -54 -160
-48 -72 10 -69 19 12 40 81 22 148 25 148 8z"/>
<path d="M1710 6866 c0 -2 8 -10 18 -17 15 -13 16 -12 3 4 -13 16 -21 21 -21
13z"/>
<path d="M3718 5764 c-4 -3 -57 -6 -120 -8 -93 -1 -120 -6 -153 -23 -118 -62
-137 -176 -52 -313 79 -125 82 -169 15 -210 -65 -39 -108 -20 -108 49 0 26 -4
31 -23 31 -12 0 -39 -14 -59 -30 l-36 -30 10 36 c5 20 7 38 5 41 -3 2 -13 -29
-22 -69 -15 -70 -15 -77 1 -117 42 -105 203 -125 327 -40 42 29 64 55 87 104
l20 40 0 -31 c0 -18 8 -38 20 -49 38 -34 206 2 217 46 5 16 8 16 44 -3 36 -18
53 -20 172 -16 121 4 137 7 187 32 30 16 57 32 58 37 7 17 20 9 26 -15 6 -25
12 -25 166 -7 l55 6 3 43 3 43 -36 -15 c-36 -15 -36 -15 -29 7 3 12 25 58 47
101 64 124 164 238 121 139 -17 -41 -51 -158 -60 -210 -5 -23 -1 -40 16 -63
22 -31 24 -32 79 -26 107 13 108 13 120 61 16 64 16 64 -36 49 -53 -16 -73 -6
-43 21 13 12 20 31 20 54 0 20 9 79 21 131 32 151 33 164 15 180 -14 11 -28
11 -77 2 -33 -6 -73 -17 -89 -25 -20 -11 -31 -12 -39 -4 -8 8 -27 8 -69 -1
-31 -6 -83 -14 -114 -18 -49 -6 -58 -10 -58 -26 0 -15 -4 -18 -17 -13 -42 16
-74 16 -162 1 -107 -19 -159 -42 -195 -88 l-26 -33 0 33 0 34 -58 -7 -58 -6 4
40 c3 34 2 39 -15 35 -150 -35 -148 -34 -188 -109 -14 -27 -32 -56 -41 -66
-20 -22 -8 -47 24 -51 32 -4 37 -22 21 -80 l-11 -43 -23 51 c-13 28 -28 54
-34 58 -6 4 -29 38 -52 77 -36 61 -40 73 -31 94 16 35 50 33 58 -2 12 -55 16
-63 29 -63 7 0 27 18 44 39 26 33 31 47 31 95 0 52 2 57 26 66 32 13 72 40 58
40 -6 0 -13 -3 -16 -6z m712 -203 c0 -42 -24 -83 -61 -107 -28 -17 -39 -31
-39 -49 0 -14 5 -25 10 -25 19 0 10 -38 -16 -64 -15 -14 -29 -27 -33 -27 -52
-11 -53 -5 -5 36 27 24 46 46 42 50 -4 4 -21 -4 -38 -18 -29 -24 -171 -97
-190 -97 -5 0 -21 5 -36 11 -28 10 -27 11 56 55 185 99 270 167 286 228 7 30
24 35 24 7z m-266 -43 c-32 -61 -66 -108 -76 -102 -15 10 0 53 34 95 40 50 66
54 42 7z m-505 -27 c-15 -5 -22 6 -14 19 6 9 10 9 16 -1 5 -8 4 -15 -2 -18z
m246 -41 c-4 -12 -9 -19 -12 -17 -3 3 -2 15 2 27 4 12 9 19 12 17 3 -3 2 -15
-2 -27z m-225 -17 c0 -21 -3 -24 -9 -14 -5 8 -7 20 -4 28 8 21 13 15 13 -14z
m261 -40 c-2 -32 -6 -52 -8 -45 -3 6 -11 12 -19 12 -8 0 -14 7 -14 15 0 8 7
15 16 15 8 0 12 4 9 10 -5 8 10 50 18 50 1 0 0 -26 -2 -57z m201 25 c-12 -12
-24 -19 -28 -15 -4 3 4 15 17 26 31 25 39 17 11 -11z m-276 -7 c-23 -26 -68
-129 -64 -149 3 -12 15 0 41 41 45 70 68 67 32 -3 -28 -55 -48 -70 -98 -70
l-34 0 13 88 c8 48 14 92 14 99 0 7 19 13 48 15 59 4 67 0 48 -21z m525 -41
c-5 -25 -9 -35 -10 -24 -1 28 11 92 16 79 1 -6 -1 -30 -6 -55z m-482 -97 c-1
-33 -2 -35 -8 -13 -4 14 -6 31 -3 38 8 22 12 13 11 -25z m321 13 c0 -2 -7 -7
-16 -10 -8 -3 -12 -2 -9 4 6 10 25 14 25 6z m-43 -22 c-3 -3 -12 -4 -19 -1 -8
3 -5 6 6 6 11 1 17 -2 13 -5z"/>
<path d="M3891 5644 c0 -11 3 -14 6 -6 3 7 2 16 -1 19 -3 4 -6 -2 -5 -13z"/>
<path d="M4605 5449 c-4 -6 -5 -12 -2 -15 2 -3 7 2 10 11 7 17 1 20 -8 4z"/>
<path d="M3365 5355 c15 -42 17 -63 6 -84 -12 -22 -5 -27 17 -12 16 10 7 71
-15 98 -14 17 -14 17 -8 -2z"/>
<path d="M5676 6062 c-15 -3 -17 -10 -12 -45 9 -57 80 -354 120 -507 19 -69
44 -168 56 -220 27 -120 39 -140 86 -140 l36 0 -7 46 c-4 26 -42 169 -86 318
-44 149 -87 298 -95 331 -21 84 -64 214 -72 218 -4 2 -15 2 -26 -1z"/>
<path d="M5385 5979 c-77 -15 -150 -32 -162 -38 l-23 -11 0 -379 c0 -318 2
-380 14 -391 12 -9 54 -9 188 0 95 6 181 13 191 16 14 5 17 18 17 89 l0 83
-91 7 c-75 6 -95 11 -120 32 l-29 25 0 188 0 189 28 21 c25 20 34 22 110 16
45 -3 88 -7 95 -9 16 -3 22 145 7 173 -14 27 -49 25 -225 -11z"/>
<path d="M5470 5786 c0 -7 7 -19 15 -26 13 -11 15 -38 13 -158 l-3 -146 -32
-8 c-39 -10 -47 -22 -33 -48 9 -18 21 -20 95 -20 l85 0 0 194 c0 227 0 226
-86 226 -39 0 -54 -4 -54 -14z"/>
<path d="M5667 5453 c-4 -3 -7 -48 -7 -99 l0 -93 33 -3 c28 -3 35 -10 57 -55
24 -51 39 -60 74 -47 22 8 22 80 0 88 -9 3 -20 4 -25 0 -5 -3 -9 12 -9 33 0
45 -8 59 -35 65 -16 3 -19 10 -17 40 4 47 -12 78 -42 78 -12 0 -26 -3 -29 -7z"/>
<path d="M6582 4666 c-17 -8 -37 -27 -42 -41 -6 -15 -10 -92 -10 -172 0 -207
17 -237 137 -237 51 0 67 4 87 23 31 30 40 97 27 221 -12 115 -30 168 -63 193
-33 25 -95 31 -136 13z m110 -107 c32 -17 48 -71 48 -164 0 -72 -3 -88 -20
-105 -28 -28 -57 -25 -92 10 l-30 31 4 101 c3 90 6 102 27 119 27 22 35 23 63
8z"/>
<path d="M7773 4670 c-37 -15 -43 -42 -43 -192 0 -157 5 -175 60 -203 56 -29
158 -11 174 30 3 9 6 58 6 108 0 81 -4 112 -25 205 -11 48 -108 77 -172 52z
m125 -121 c24 -25 32 -62 32 -145 0 -51 -4 -68 -20 -84 -28 -28 -54 -25 -84
11 -23 27 -26 39 -26 113 0 92 15 126 55 126 13 0 33 -9 43 -21z"/>
<path d="M5970 4606 l0 -64 63 -54 c78 -69 107 -88 129 -88 16 0 18 12 18 129
l0 128 -46 7 c-26 3 -73 6 -105 6 l-59 0 0 -64z"/>
<path d="M6168 4263 c-1 -5 -2 -24 -2 -43 l-1 -35 -73 4 c-71 3 -73 2 -63 -16
11 -21 69 -33 164 -33 55 0 56 4 22 78 -21 46 -42 66 -47 45z"/>
<path d="M6076 2819 c-10 -83 -15 -153 -12 -156 12 -12 159 16 185 35 50 36
71 80 71 144 0 33 -5 68 -10 79 -18 33 -64 49 -143 49 l-74 0 -17 -151z"/>
</g>
</svg>
